<mxfile host="app.diagrams.net" modified="2024-08-01T15:39:55.565Z" agent="Mozilla/5.0 (Windows NT 10.0; Win64; x64) AppleWebKit/537.36 (KHTML, like Gecko) Chrome/127.0.0.0 Safari/537.36" etag="GCsonNaEg6ESPJmo-yGU" version="24.7.0" type="device">
  <diagram id="R2lEEEUBdFMjLlhIrx00" name="Page-1">
    <mxGraphModel dx="1750" dy="4183" grid="1" gridSize="10" guides="1" tooltips="1" connect="1" arrows="1" fold="1" page="1" pageScale="1" pageWidth="4681" pageHeight="3300" math="0" shadow="0" extFonts="Permanent Marker^https://fonts.googleapis.com/css?family=Permanent+Marker">
      <root>
        <mxCell id="0" />
        <mxCell id="1" parent="0" />
        <mxCell id="kcYXbjeJyVIT33wYwLrg-26" value="" style="shape=table;startSize=0;container=1;collapsible=0;childLayout=tableLayout;" vertex="1" parent="1">
          <mxGeometry x="874" y="102.5" width="100" height="85" as="geometry" />
        </mxCell>
        <mxCell id="kcYXbjeJyVIT33wYwLrg-27" value="" style="shape=tableRow;horizontal=0;startSize=0;swimlaneHead=0;swimlaneBody=0;strokeColor=inherit;top=0;left=0;bottom=0;right=0;collapsible=0;dropTarget=0;fillColor=none;points=[[0,0.5],[1,0.5]];portConstraint=eastwest;" vertex="1" parent="kcYXbjeJyVIT33wYwLrg-26">
          <mxGeometry width="100" height="40" as="geometry" />
        </mxCell>
        <mxCell id="kcYXbjeJyVIT33wYwLrg-28" value="User" style="shape=partialRectangle;html=1;whiteSpace=wrap;connectable=0;strokeColor=inherit;overflow=hidden;fillColor=none;top=0;left=0;bottom=0;right=0;pointerEvents=1;" vertex="1" parent="kcYXbjeJyVIT33wYwLrg-27">
          <mxGeometry width="100" height="40" as="geometry">
            <mxRectangle width="100" height="40" as="alternateBounds" />
          </mxGeometry>
        </mxCell>
        <mxCell id="kcYXbjeJyVIT33wYwLrg-29" value="" style="shape=tableRow;horizontal=0;startSize=0;swimlaneHead=0;swimlaneBody=0;strokeColor=inherit;top=0;left=0;bottom=0;right=0;collapsible=0;dropTarget=0;fillColor=none;points=[[0,0.5],[1,0.5]];portConstraint=eastwest;" vertex="1" parent="kcYXbjeJyVIT33wYwLrg-26">
          <mxGeometry y="40" width="100" height="45" as="geometry" />
        </mxCell>
        <mxCell id="kcYXbjeJyVIT33wYwLrg-30" value="&lt;div style=&quot;text-align: justify;&quot;&gt;&lt;span style=&quot;background-color: initial;&quot;&gt;id（PK）&lt;/span&gt;&lt;/div&gt;&lt;div style=&quot;text-align: justify;&quot;&gt;&lt;span style=&quot;background-color: initial;&quot;&gt;type&lt;/span&gt;&lt;/div&gt;" style="shape=partialRectangle;html=1;whiteSpace=wrap;connectable=0;strokeColor=inherit;overflow=hidden;fillColor=none;top=0;left=0;bottom=0;right=0;pointerEvents=1;align=center;" vertex="1" parent="kcYXbjeJyVIT33wYwLrg-29">
          <mxGeometry width="100" height="45" as="geometry">
            <mxRectangle width="100" height="45" as="alternateBounds" />
          </mxGeometry>
        </mxCell>
        <mxCell id="kcYXbjeJyVIT33wYwLrg-31" value="" style="shape=table;startSize=0;container=1;collapsible=0;childLayout=tableLayout;" vertex="1" parent="1">
          <mxGeometry x="1364" y="100" width="100" height="90" as="geometry" />
        </mxCell>
        <mxCell id="kcYXbjeJyVIT33wYwLrg-32" value="" style="shape=tableRow;horizontal=0;startSize=0;swimlaneHead=0;swimlaneBody=0;strokeColor=inherit;top=0;left=0;bottom=0;right=0;collapsible=0;dropTarget=0;fillColor=none;points=[[0,0.5],[1,0.5]];portConstraint=eastwest;" vertex="1" parent="kcYXbjeJyVIT33wYwLrg-31">
          <mxGeometry width="100" height="45" as="geometry" />
        </mxCell>
        <mxCell id="kcYXbjeJyVIT33wYwLrg-33" value="Site" style="shape=partialRectangle;html=1;whiteSpace=wrap;connectable=0;strokeColor=inherit;overflow=hidden;fillColor=none;top=0;left=0;bottom=0;right=0;pointerEvents=1;" vertex="1" parent="kcYXbjeJyVIT33wYwLrg-32">
          <mxGeometry width="100" height="45" as="geometry">
            <mxRectangle width="100" height="45" as="alternateBounds" />
          </mxGeometry>
        </mxCell>
        <mxCell id="kcYXbjeJyVIT33wYwLrg-34" value="" style="shape=tableRow;horizontal=0;startSize=0;swimlaneHead=0;swimlaneBody=0;strokeColor=inherit;top=0;left=0;bottom=0;right=0;collapsible=0;dropTarget=0;fillColor=none;points=[[0,0.5],[1,0.5]];portConstraint=eastwest;" vertex="1" parent="kcYXbjeJyVIT33wYwLrg-31">
          <mxGeometry y="45" width="100" height="45" as="geometry" />
        </mxCell>
        <mxCell id="kcYXbjeJyVIT33wYwLrg-35" value="id（PK）" style="shape=partialRectangle;html=1;whiteSpace=wrap;connectable=0;strokeColor=inherit;overflow=hidden;fillColor=none;top=0;left=0;bottom=0;right=0;pointerEvents=1;" vertex="1" parent="kcYXbjeJyVIT33wYwLrg-34">
          <mxGeometry width="100" height="45" as="geometry">
            <mxRectangle width="100" height="45" as="alternateBounds" />
          </mxGeometry>
        </mxCell>
        <mxCell id="kcYXbjeJyVIT33wYwLrg-37" value="" style="shape=table;startSize=0;container=1;collapsible=0;childLayout=tableLayout;" vertex="1" parent="1">
          <mxGeometry x="974" y="240" width="100" height="85" as="geometry" />
        </mxCell>
        <mxCell id="kcYXbjeJyVIT33wYwLrg-38" value="" style="shape=tableRow;horizontal=0;startSize=0;swimlaneHead=0;swimlaneBody=0;strokeColor=inherit;top=0;left=0;bottom=0;right=0;collapsible=0;dropTarget=0;fillColor=none;points=[[0,0.5],[1,0.5]];portConstraint=eastwest;" vertex="1" parent="kcYXbjeJyVIT33wYwLrg-37">
          <mxGeometry width="100" height="40" as="geometry" />
        </mxCell>
        <mxCell id="kcYXbjeJyVIT33wYwLrg-39" value="SiteUser" style="shape=partialRectangle;html=1;whiteSpace=wrap;connectable=0;strokeColor=inherit;overflow=hidden;fillColor=none;top=0;left=0;bottom=0;right=0;pointerEvents=1;" vertex="1" parent="kcYXbjeJyVIT33wYwLrg-38">
          <mxGeometry width="100" height="40" as="geometry">
            <mxRectangle width="100" height="40" as="alternateBounds" />
          </mxGeometry>
        </mxCell>
        <mxCell id="kcYXbjeJyVIT33wYwLrg-40" value="" style="shape=tableRow;horizontal=0;startSize=0;swimlaneHead=0;swimlaneBody=0;strokeColor=inherit;top=0;left=0;bottom=0;right=0;collapsible=0;dropTarget=0;fillColor=none;points=[[0,0.5],[1,0.5]];portConstraint=eastwest;" vertex="1" parent="kcYXbjeJyVIT33wYwLrg-37">
          <mxGeometry y="40" width="100" height="45" as="geometry" />
        </mxCell>
        <mxCell id="kcYXbjeJyVIT33wYwLrg-41" value="&lt;div style=&quot;text-align: justify;&quot;&gt;&lt;span style=&quot;background-color: initial;&quot;&gt;id（PK）&lt;/span&gt;&lt;/div&gt;&lt;div style=&quot;text-align: justify;&quot;&gt;&lt;span style=&quot;background-color: initial;&quot;&gt;type=2&lt;/span&gt;&lt;/div&gt;" style="shape=partialRectangle;html=1;whiteSpace=wrap;connectable=0;strokeColor=inherit;overflow=hidden;fillColor=none;top=0;left=0;bottom=0;right=0;pointerEvents=1;align=center;" vertex="1" parent="kcYXbjeJyVIT33wYwLrg-40">
          <mxGeometry width="100" height="45" as="geometry">
            <mxRectangle width="100" height="45" as="alternateBounds" />
          </mxGeometry>
        </mxCell>
        <mxCell id="kcYXbjeJyVIT33wYwLrg-42" value="" style="shape=table;startSize=0;container=1;collapsible=0;childLayout=tableLayout;" vertex="1" parent="1">
          <mxGeometry x="804" y="240" width="100" height="85" as="geometry" />
        </mxCell>
        <mxCell id="kcYXbjeJyVIT33wYwLrg-43" value="" style="shape=tableRow;horizontal=0;startSize=0;swimlaneHead=0;swimlaneBody=0;strokeColor=inherit;top=0;left=0;bottom=0;right=0;collapsible=0;dropTarget=0;fillColor=none;points=[[0,0.5],[1,0.5]];portConstraint=eastwest;" vertex="1" parent="kcYXbjeJyVIT33wYwLrg-42">
          <mxGeometry width="100" height="40" as="geometry" />
        </mxCell>
        <mxCell id="kcYXbjeJyVIT33wYwLrg-44" value="AdminUser" style="shape=partialRectangle;html=1;whiteSpace=wrap;connectable=0;strokeColor=inherit;overflow=hidden;fillColor=none;top=0;left=0;bottom=0;right=0;pointerEvents=1;" vertex="1" parent="kcYXbjeJyVIT33wYwLrg-43">
          <mxGeometry width="100" height="40" as="geometry">
            <mxRectangle width="100" height="40" as="alternateBounds" />
          </mxGeometry>
        </mxCell>
        <mxCell id="kcYXbjeJyVIT33wYwLrg-45" value="" style="shape=tableRow;horizontal=0;startSize=0;swimlaneHead=0;swimlaneBody=0;strokeColor=inherit;top=0;left=0;bottom=0;right=0;collapsible=0;dropTarget=0;fillColor=none;points=[[0,0.5],[1,0.5]];portConstraint=eastwest;" vertex="1" parent="kcYXbjeJyVIT33wYwLrg-42">
          <mxGeometry y="40" width="100" height="45" as="geometry" />
        </mxCell>
        <mxCell id="kcYXbjeJyVIT33wYwLrg-46" value="&lt;div style=&quot;text-align: justify;&quot;&gt;&lt;span style=&quot;background-color: initial;&quot;&gt;id（PK）&lt;/span&gt;&lt;/div&gt;&lt;div style=&quot;text-align: justify;&quot;&gt;&lt;span style=&quot;background-color: initial;&quot;&gt;type=1&lt;/span&gt;&lt;/div&gt;" style="shape=partialRectangle;html=1;whiteSpace=wrap;connectable=0;strokeColor=inherit;overflow=hidden;fillColor=none;top=0;left=0;bottom=0;right=0;pointerEvents=1;align=center;" vertex="1" parent="kcYXbjeJyVIT33wYwLrg-45">
          <mxGeometry width="100" height="45" as="geometry">
            <mxRectangle width="100" height="45" as="alternateBounds" />
          </mxGeometry>
        </mxCell>
        <mxCell id="kcYXbjeJyVIT33wYwLrg-49" value="Extends" style="endArrow=block;endSize=16;endFill=0;html=1;rounded=0;entryX=0.532;entryY=0.969;entryDx=0;entryDy=0;entryPerimeter=0;exitX=0.512;exitY=-0.05;exitDx=0;exitDy=0;exitPerimeter=0;" edge="1" parent="1" source="kcYXbjeJyVIT33wYwLrg-43" target="kcYXbjeJyVIT33wYwLrg-29">
          <mxGeometry width="160" relative="1" as="geometry">
            <mxPoint x="794" y="200" as="sourcePoint" />
            <mxPoint x="954" y="200" as="targetPoint" />
          </mxGeometry>
        </mxCell>
        <mxCell id="kcYXbjeJyVIT33wYwLrg-50" value="Extends" style="endArrow=block;endSize=16;endFill=0;html=1;rounded=0;entryX=0.564;entryY=1.04;entryDx=0;entryDy=0;entryPerimeter=0;" edge="1" parent="1" target="kcYXbjeJyVIT33wYwLrg-29">
          <mxGeometry width="160" relative="1" as="geometry">
            <mxPoint x="1024" y="240" as="sourcePoint" />
            <mxPoint x="1184" y="240" as="targetPoint" />
          </mxGeometry>
        </mxCell>
        <mxCell id="kcYXbjeJyVIT33wYwLrg-52" value="" style="endArrow=none;html=1;rounded=0;entryX=0.008;entryY=0.916;entryDx=0;entryDy=0;entryPerimeter=0;" edge="1" parent="1" source="kcYXbjeJyVIT33wYwLrg-51">
          <mxGeometry relative="1" as="geometry">
            <mxPoint x="973.2" y="141.89" as="sourcePoint" />
            <mxPoint x="1364" y="143.11" as="targetPoint" />
          </mxGeometry>
        </mxCell>
        <mxCell id="kcYXbjeJyVIT33wYwLrg-54" value="N" style="resizable=0;html=1;whiteSpace=wrap;align=right;verticalAlign=bottom;" connectable="0" vertex="1" parent="kcYXbjeJyVIT33wYwLrg-52">
          <mxGeometry x="1" relative="1" as="geometry" />
        </mxCell>
        <mxCell id="kcYXbjeJyVIT33wYwLrg-56" value="" style="endArrow=none;html=1;rounded=0;entryX=0;entryY=0.5;entryDx=0;entryDy=0;" edge="1" parent="1" target="kcYXbjeJyVIT33wYwLrg-51">
          <mxGeometry relative="1" as="geometry">
            <mxPoint x="973.2" y="141.89" as="sourcePoint" />
            <mxPoint x="1364" y="143.11" as="targetPoint" />
          </mxGeometry>
        </mxCell>
        <mxCell id="kcYXbjeJyVIT33wYwLrg-57" value="M" style="resizable=0;html=1;whiteSpace=wrap;align=left;verticalAlign=bottom;" connectable="0" vertex="1" parent="kcYXbjeJyVIT33wYwLrg-56">
          <mxGeometry x="-1" relative="1" as="geometry" />
        </mxCell>
        <mxCell id="kcYXbjeJyVIT33wYwLrg-51" value="bind" style="shape=rhombus;perimeter=rhombusPerimeter;whiteSpace=wrap;html=1;align=center;" vertex="1" parent="1">
          <mxGeometry x="1114" y="115" width="120" height="60" as="geometry" />
        </mxCell>
        <mxCell id="kcYXbjeJyVIT33wYwLrg-59" value="" style="shape=table;startSize=0;container=1;collapsible=0;childLayout=tableLayout;" vertex="1" parent="1">
          <mxGeometry x="1364" y="432.5" width="100" height="90" as="geometry" />
        </mxCell>
        <mxCell id="kcYXbjeJyVIT33wYwLrg-60" value="" style="shape=tableRow;horizontal=0;startSize=0;swimlaneHead=0;swimlaneBody=0;strokeColor=inherit;top=0;left=0;bottom=0;right=0;collapsible=0;dropTarget=0;fillColor=none;points=[[0,0.5],[1,0.5]];portConstraint=eastwest;" vertex="1" parent="kcYXbjeJyVIT33wYwLrg-59">
          <mxGeometry width="100" height="45" as="geometry" />
        </mxCell>
        <mxCell id="kcYXbjeJyVIT33wYwLrg-61" value="Region" style="shape=partialRectangle;html=1;whiteSpace=wrap;connectable=0;strokeColor=inherit;overflow=hidden;fillColor=none;top=0;left=0;bottom=0;right=0;pointerEvents=1;" vertex="1" parent="kcYXbjeJyVIT33wYwLrg-60">
          <mxGeometry width="100" height="45" as="geometry">
            <mxRectangle width="100" height="45" as="alternateBounds" />
          </mxGeometry>
        </mxCell>
        <mxCell id="kcYXbjeJyVIT33wYwLrg-62" value="" style="shape=tableRow;horizontal=0;startSize=0;swimlaneHead=0;swimlaneBody=0;strokeColor=inherit;top=0;left=0;bottom=0;right=0;collapsible=0;dropTarget=0;fillColor=none;points=[[0,0.5],[1,0.5]];portConstraint=eastwest;" vertex="1" parent="kcYXbjeJyVIT33wYwLrg-59">
          <mxGeometry y="45" width="100" height="45" as="geometry" />
        </mxCell>
        <mxCell id="kcYXbjeJyVIT33wYwLrg-63" value="id（PK）" style="shape=partialRectangle;html=1;whiteSpace=wrap;connectable=0;strokeColor=inherit;overflow=hidden;fillColor=none;top=0;left=0;bottom=0;right=0;pointerEvents=1;" vertex="1" parent="kcYXbjeJyVIT33wYwLrg-62">
          <mxGeometry width="100" height="45" as="geometry">
            <mxRectangle width="100" height="45" as="alternateBounds" />
          </mxGeometry>
        </mxCell>
        <mxCell id="kcYXbjeJyVIT33wYwLrg-77" value="" style="shape=table;startSize=0;container=1;collapsible=0;childLayout=tableLayout;fillColor=#f8cecc;strokeColor=#b85450;" vertex="1" parent="1">
          <mxGeometry x="1514" y="270" width="100" height="95" as="geometry" />
        </mxCell>
        <mxCell id="kcYXbjeJyVIT33wYwLrg-78" value="" style="shape=tableRow;horizontal=0;startSize=0;swimlaneHead=0;swimlaneBody=0;strokeColor=inherit;top=0;left=0;bottom=0;right=0;collapsible=0;dropTarget=0;fillColor=none;points=[[0,0.5],[1,0.5]];portConstraint=eastwest;" vertex="1" parent="kcYXbjeJyVIT33wYwLrg-77">
          <mxGeometry width="100" height="40" as="geometry" />
        </mxCell>
        <mxCell id="kcYXbjeJyVIT33wYwLrg-79" value="user_region" style="shape=partialRectangle;html=1;whiteSpace=wrap;connectable=0;strokeColor=inherit;overflow=hidden;fillColor=none;top=0;left=0;bottom=0;right=0;pointerEvents=1;" vertex="1" parent="kcYXbjeJyVIT33wYwLrg-78">
          <mxGeometry width="100" height="40" as="geometry">
            <mxRectangle width="100" height="40" as="alternateBounds" />
          </mxGeometry>
        </mxCell>
        <mxCell id="kcYXbjeJyVIT33wYwLrg-80" value="" style="shape=tableRow;horizontal=0;startSize=0;swimlaneHead=0;swimlaneBody=0;strokeColor=inherit;top=0;left=0;bottom=0;right=0;collapsible=0;dropTarget=0;fillColor=none;points=[[0,0.5],[1,0.5]];portConstraint=eastwest;" vertex="1" parent="kcYXbjeJyVIT33wYwLrg-77">
          <mxGeometry y="40" width="100" height="55" as="geometry" />
        </mxCell>
        <mxCell id="kcYXbjeJyVIT33wYwLrg-81" value="&lt;div style=&quot;text-align: justify;&quot;&gt;&lt;span style=&quot;background-color: initial;&quot;&gt;id(PK)&lt;/span&gt;&lt;/div&gt;&lt;div style=&quot;text-align: justify;&quot;&gt;site_id(FK)&lt;/div&gt;&lt;div style=&quot;text-align: justify;&quot;&gt;region_id(FK)&lt;/div&gt;" style="shape=partialRectangle;html=1;whiteSpace=wrap;connectable=0;strokeColor=inherit;overflow=hidden;fillColor=none;top=0;left=0;bottom=0;right=0;pointerEvents=1;" vertex="1" parent="kcYXbjeJyVIT33wYwLrg-80">
          <mxGeometry width="100" height="55" as="geometry">
            <mxRectangle width="100" height="55" as="alternateBounds" />
          </mxGeometry>
        </mxCell>
        <mxCell id="kcYXbjeJyVIT33wYwLrg-84" value="1" style="text;html=1;align=center;verticalAlign=middle;resizable=0;points=[];autosize=1;strokeColor=none;fillColor=none;" vertex="1" parent="1">
          <mxGeometry x="1384" y="190" width="30" height="30" as="geometry" />
        </mxCell>
        <mxCell id="kcYXbjeJyVIT33wYwLrg-82" value="" style="endArrow=none;html=1;rounded=0;entryX=0.52;entryY=-0.02;entryDx=0;entryDy=0;entryPerimeter=0;" edge="1" parent="1" source="kcYXbjeJyVIT33wYwLrg-85" target="kcYXbjeJyVIT33wYwLrg-60">
          <mxGeometry relative="1" as="geometry">
            <mxPoint x="1364" y="270" as="sourcePoint" />
            <mxPoint x="1524" y="270" as="targetPoint" />
          </mxGeometry>
        </mxCell>
        <mxCell id="kcYXbjeJyVIT33wYwLrg-83" value="N" style="resizable=0;html=1;whiteSpace=wrap;align=right;verticalAlign=bottom;" connectable="0" vertex="1" parent="kcYXbjeJyVIT33wYwLrg-82">
          <mxGeometry x="1" relative="1" as="geometry" />
        </mxCell>
        <mxCell id="kcYXbjeJyVIT33wYwLrg-86" value="" style="endArrow=none;html=1;rounded=0;entryX=0.52;entryY=-0.02;entryDx=0;entryDy=0;entryPerimeter=0;" edge="1" parent="1" source="kcYXbjeJyVIT33wYwLrg-34" target="kcYXbjeJyVIT33wYwLrg-85">
          <mxGeometry relative="1" as="geometry">
            <mxPoint x="1414" y="190" as="sourcePoint" />
            <mxPoint x="1416" y="432" as="targetPoint" />
          </mxGeometry>
        </mxCell>
        <mxCell id="kcYXbjeJyVIT33wYwLrg-85" value="belong" style="shape=rhombus;perimeter=rhombusPerimeter;whiteSpace=wrap;html=1;align=center;" vertex="1" parent="1">
          <mxGeometry x="1354" y="280" width="120" height="60" as="geometry" />
        </mxCell>
        <mxCell id="kcYXbjeJyVIT33wYwLrg-88" value="" style="shape=table;startSize=0;container=1;collapsible=0;childLayout=tableLayout;fillColor=#f8cecc;strokeColor=#b85450;swimlaneFillColor=default;gradientColor=none;" vertex="1" parent="1">
          <mxGeometry x="1134" y="-50" width="100" height="95" as="geometry" />
        </mxCell>
        <mxCell id="kcYXbjeJyVIT33wYwLrg-89" value="" style="shape=tableRow;horizontal=0;startSize=0;swimlaneHead=0;swimlaneBody=0;strokeColor=inherit;top=0;left=0;bottom=0;right=0;collapsible=0;dropTarget=0;fillColor=none;points=[[0,0.5],[1,0.5]];portConstraint=eastwest;" vertex="1" parent="kcYXbjeJyVIT33wYwLrg-88">
          <mxGeometry width="100" height="40" as="geometry" />
        </mxCell>
        <mxCell id="kcYXbjeJyVIT33wYwLrg-90" value="user_site" style="shape=partialRectangle;html=1;whiteSpace=wrap;connectable=0;strokeColor=inherit;overflow=hidden;fillColor=none;top=0;left=0;bottom=0;right=0;pointerEvents=1;" vertex="1" parent="kcYXbjeJyVIT33wYwLrg-89">
          <mxGeometry width="100" height="40" as="geometry">
            <mxRectangle width="100" height="40" as="alternateBounds" />
          </mxGeometry>
        </mxCell>
        <mxCell id="kcYXbjeJyVIT33wYwLrg-91" value="" style="shape=tableRow;horizontal=0;startSize=0;swimlaneHead=0;swimlaneBody=0;strokeColor=inherit;top=0;left=0;bottom=0;right=0;collapsible=0;dropTarget=0;fillColor=none;points=[[0,0.5],[1,0.5]];portConstraint=eastwest;" vertex="1" parent="kcYXbjeJyVIT33wYwLrg-88">
          <mxGeometry y="40" width="100" height="55" as="geometry" />
        </mxCell>
        <mxCell id="kcYXbjeJyVIT33wYwLrg-92" value="&lt;div style=&quot;text-align: justify;&quot;&gt;&lt;span style=&quot;background-color: initial;&quot;&gt;id(PK)&lt;/span&gt;&lt;/div&gt;&lt;div style=&quot;text-align: justify;&quot;&gt;site_id(FK)&lt;/div&gt;&lt;div style=&quot;text-align: justify;&quot;&gt;user_id(FK)&lt;/div&gt;" style="shape=partialRectangle;html=1;whiteSpace=wrap;connectable=0;strokeColor=inherit;overflow=hidden;fillColor=none;top=0;left=0;bottom=0;right=0;pointerEvents=1;" vertex="1" parent="kcYXbjeJyVIT33wYwLrg-91">
          <mxGeometry width="100" height="55" as="geometry">
            <mxRectangle width="100" height="55" as="alternateBounds" />
          </mxGeometry>
        </mxCell>
        <mxCell id="kcYXbjeJyVIT33wYwLrg-97" value="" style="endArrow=classic;html=1;rounded=0;exitX=-0.004;exitY=0.015;exitDx=0;exitDy=0;exitPerimeter=0;entryX=0.468;entryY=-0.012;entryDx=0;entryDy=0;entryPerimeter=0;" edge="1" parent="1" source="kcYXbjeJyVIT33wYwLrg-91" target="kcYXbjeJyVIT33wYwLrg-27">
          <mxGeometry width="50" height="50" relative="1" as="geometry">
            <mxPoint x="924" y="100" as="sourcePoint" />
            <mxPoint x="974" y="50" as="targetPoint" />
          </mxGeometry>
        </mxCell>
        <mxCell id="kcYXbjeJyVIT33wYwLrg-98" value="" style="endArrow=classic;html=1;rounded=0;exitX=0.972;exitY=0;exitDx=0;exitDy=0;exitPerimeter=0;entryX=0.472;entryY=-0.044;entryDx=0;entryDy=0;entryPerimeter=0;" edge="1" parent="1" source="kcYXbjeJyVIT33wYwLrg-91" target="kcYXbjeJyVIT33wYwLrg-32">
          <mxGeometry width="50" height="50" relative="1" as="geometry">
            <mxPoint x="1294" y="20" as="sourcePoint" />
            <mxPoint x="1344" y="-30" as="targetPoint" />
            <Array as="points" />
          </mxGeometry>
        </mxCell>
        <mxCell id="kcYXbjeJyVIT33wYwLrg-99" value="" style="endArrow=classic;html=1;rounded=0;entryX=1.008;entryY=-0.013;entryDx=0;entryDy=0;entryPerimeter=0;exitX=0.484;exitY=-0.02;exitDx=0;exitDy=0;exitPerimeter=0;" edge="1" parent="1" source="kcYXbjeJyVIT33wYwLrg-78" target="kcYXbjeJyVIT33wYwLrg-34">
          <mxGeometry width="50" height="50" relative="1" as="geometry">
            <mxPoint x="1514" y="230" as="sourcePoint" />
            <mxPoint x="1564" y="180" as="targetPoint" />
          </mxGeometry>
        </mxCell>
        <mxCell id="kcYXbjeJyVIT33wYwLrg-100" value="" style="endArrow=classic;html=1;rounded=0;entryX=1;entryY=0.993;entryDx=0;entryDy=0;entryPerimeter=0;exitX=0.452;exitY=1.047;exitDx=0;exitDy=0;exitPerimeter=0;" edge="1" parent="1" source="kcYXbjeJyVIT33wYwLrg-80" target="kcYXbjeJyVIT33wYwLrg-60">
          <mxGeometry width="50" height="50" relative="1" as="geometry">
            <mxPoint x="1564" y="360" as="sourcePoint" />
            <mxPoint x="1544" y="450" as="targetPoint" />
          </mxGeometry>
        </mxCell>
      </root>
    </mxGraphModel>
  </diagram>
</mxfile>
